<svg xmlns="http://www.w3.org/2000/svg" viewBox="0 0 855 743" width="855" height="743">
	<style>
		tspan { white-space:pre }
		.shp0 { fill: none;stroke: #4351b3 } 
		.shp1 { fill: none;stroke: #4351b3;stroke-width: 0.893 } 
		.shp2 { fill: none;stroke: #4351b3;stroke-width: 0.786 } 
		.shp3 { fill: none;stroke: #4351b3;stroke-width: 0.679 } 
		.shp4 { fill: none;stroke: #4351b3;stroke-width: 0.571 } 
		.shp5 { fill: none;stroke: #4351b3;stroke-width: 0.464 } 
		.shp6 { fill: none;stroke: #4351b3;stroke-width: 0.357 } 
		.shp7 { fill: none;stroke: #4351b3;stroke-width: 0.25 }

@keyframes flicker {
  0% {
    opacity: 0;
  }
  5% {
    opacity: 1;
  }
    95% {
    opacity: 1;
  }
  100% {
    opacity: 0;
  }
}
@keyframes flicker-1 {
  0% {
    opacity: 0;
  }
  10% {
    opacity: 1;
  }
    90% {
    opacity: 1;
  }
  100% {
    opacity: 0;
  }
}
@keyframes flicker-2 {
  0% {
    opacity: 0;
  }
  20% {
    opacity: 1;
  }
  85% {
    opacity: 1;
  }
  100% {
    opacity: 0;
  }
}
@keyframes flicker-3 {
  0% {
    opacity: 0;
  }
  30% {
    opacity: 1;
  }
  80% {
    opacity: 1;
  }
  100% {
    opacity: 0;
  }
}
@keyframes flicker-4 {
  0% {
    opacity: 0;
  }
  35% {
    opacity: 1;
  }
  75% {
    opacity: 1;
  }

  100% {
    opacity: 0;
  }
}
@keyframes flicker-5 {
  0% {
    opacity: 0;
  }
  40% {
    opacity: 1;
  }
  70% {
    opacity: 1;
  }

  100% {
    opacity: 0;
  }
}
@keyframes flicker-6 {
  0% {
    opacity: 0;
  }
  45% {
    opacity: 1;
  }
  65% {
    opacity: 1;
  }

  100% {
    opacity: 0;
  }
}
@keyframes flicker-7 {
  0% {
    opacity: 0;
  }
  50% {
    opacity: 1;
  }
  60% {
    opacity: 1;
  }
  100% {
    opacity: 0;
  }
}


    #Group-1 { animation: flicker 10s infinite  }
    #Group-2 { animation: flicker-1 10s infinite  } 
    #Group-3 { animation: flicker-2 10s infinite  } 
    #Group-4 { animation: flicker-3 10s infinite  } 
    #Group-5 { animation: flicker-4 10s infinite  } 
    #Group-6 { animation: flicker-5 10s infinite  } 
    #Group-7 { animation: flicker-6 10s infinite  } 
    #Group-8 { animation: flicker-7 10s infinite } 

	</style>
	<g id="Group 9">
		<g id="Group-1">
			<path id="Path 1" class="shp0" d="M818.77 464.47C807.72 461.14 796.05 459.37 783.91 459.37C774.78 459.37 765.92 460.37 757.35 462.32L756.13 466.49C753.44 475.84 752.4 485.44 753.03 495.08C762.67 491.57 773.08 489.65 783.91 489.65C797.5 489.65 810.38 492.64 821.97 498L822 497.77C821.99 497.84 821.99 497.92 821.98 498L821.97 498C820.97 509.02 817.92 520.01 812.67 530.42L839.15 545.2C849.82 524.59 853.96 502.21 852.3 480.49C842.14 473.52 830.84 468.05 818.77 464.47Z" />
			<path id="Path 2" class="shp0" d="M715.51 480.48C725.68 473.52 736.95 468.07 749.03 464.45C745.92 475.26 744.8 486.64 745.83 497.99C746.99 510.69 750.87 523.35 757.67 535.12C764.46 546.89 773.49 556.56 783.91 563.91C793.84 556.94 802.44 547.85 809.05 536.88L835.57 551.66C829.66 561.59 819.76 572.86 814.52 577.91C805.44 586.66 795.03 593.62 783.91 598.94C762.64 588.74 744.11 572.24 731.42 550.27C725.36 539.77 721.03 528.72 718.38 517.5C715.49 505.25 714.57 492.76 715.51 480.48Z" />
		</g>
		<g id="Group-2">
			<path id="Path 3" class="shp1" d="M778.52 399.92C760.46 395.48 741.53 393.59 721.97 394.59C707.27 395.34 693.09 397.68 679.45 401.53L677.84 408.35C674.27 423.62 673.39 439.16 675.2 454.64C690.44 448.19 707.04 444.24 724.47 443.35C746.35 442.22 767.34 445.98 786.46 453.65L786.48 453.27C786.47 453.39 786.47 453.52 786.46 453.65L786.46 453.65C785.74 471.48 781.74 489.43 774.15 506.62L818.01 528.22C833.49 494.16 838.31 457.78 833.83 422.95C816.9 412.56 798.26 404.68 778.52 399.92Z" />
			<path id="Path 4" class="shp1" d="M613.59 434.23C629.38 422.17 647.09 412.46 666.24 405.64C662.11 423.31 661.25 441.73 663.85 459.91C666.76 480.28 674.06 500.34 685.97 518.73C697.89 537.11 713.22 551.94 730.6 562.92C746.01 550.87 759.12 535.53 768.85 517.32L812.77 538.92C804.08 555.4 789.07 574.37 781.05 582.94C767.15 597.76 750.97 609.84 733.49 619.32C698.4 604.65 667.2 579.62 644.96 545.29C634.33 528.88 626.45 511.45 621.26 493.6C615.59 474.11 613.08 454.08 613.59 434.23Z" />
		</g>
		<g id="Group-3">
			<path id="Path 5" class="shp2" d="M738.28 335.36C713.2 329.81 687.01 327.8 660.03 329.81C639.77 331.31 620.26 334.99 601.55 340.74L599.54 350.21C595.1 371.4 594.38 392.89 597.37 414.19C618.2 404.8 640.99 398.83 665.03 397.04C695.2 394.8 724.3 399.32 750.94 409.29L750.95 408.77C750.95 408.95 750.95 409.12 750.94 409.29L750.94 409.29C750.52 433.93 745.56 458.84 735.63 482.82L796.86 511.25C817.16 463.74 822.65 413.36 815.37 365.41C791.67 351.6 765.68 341.32 738.28 335.36Z" />
			<path id="Path 6" class="shp2" d="M511.66 387.97C533.08 370.82 557.22 356.86 583.44 346.84C578.31 371.36 577.7 396.81 581.86 421.83C586.53 449.86 597.25 477.32 614.27 502.33C631.31 527.34 652.95 547.33 677.29 561.93C698.19 544.8 715.79 523.21 728.66 497.76L789.97 526.19C778.5 549.22 758.38 575.88 747.57 587.96C728.86 608.87 706.9 626.06 683.08 639.7C634.16 620.56 590.29 586.99 558.5 540.3C543.3 517.98 531.86 494.17 524.14 469.69C515.69 442.96 511.59 415.39 511.66 387.97Z" />
		</g>
		<g id="Group-4">
			<path id="Path 7" class="shp3" d="M698.03 270.81C665.94 264.14 632.48 262.02 598.1 265.02C572.26 267.28 547.44 272.3 523.66 279.95L521.24 292.06C515.93 319.18 515.37 346.61 519.54 373.74C545.96 361.42 574.95 353.41 605.59 350.73C644.06 347.37 681.26 352.65 715.42 364.94C715.42 364.72 715.42 364.5 715.43 364.27C715.42 364.5 715.43 364.72 715.43 364.94L715.42 364.94C715.29 396.39 709.38 428.26 697.11 459.02L775.72 494.28C800.82 433.31 807 368.93 796.91 307.88C766.43 290.64 733.1 277.96 698.03 270.81Z" />
			<path id="Path 8" class="shp3" d="M409.73 341.71C436.79 319.47 467.35 301.26 500.65 288.03C494.51 319.41 494.15 351.9 499.88 383.75C506.3 419.44 520.44 454.3 542.58 485.93C564.73 517.56 592.68 542.71 623.98 560.94C650.37 538.73 672.47 510.88 688.46 478.21L767.17 513.46C752.91 543.03 727.69 577.39 714.1 592.98C690.57 619.98 662.83 642.28 632.66 660.08C569.92 636.47 513.38 594.37 472.05 535.32C452.28 507.09 437.28 476.9 427.02 445.79C415.79 411.82 410.1 376.7 409.73 341.71Z" />
		</g>
		<g id="Group-5">
			<path id="Path 9" class="shp4" d="M657.79 206.26C618.68 198.48 577.96 196.23 536.16 200.24C504.76 203.25 474.61 209.6 445.76 219.16L442.95 233.92C436.76 266.96 436.37 300.33 441.71 333.3C473.73 318.04 508.91 308 546.16 304.43C592.91 299.94 638.23 305.99 679.9 320.59C679.9 320.32 679.9 320.05 679.9 319.78C679.9 320.05 679.91 320.31 679.91 320.58L679.9 320.59C680.06 358.84 673.2 397.67 658.59 435.22L754.58 477.31C784.49 402.88 791.34 324.51 778.44 250.34C741.2 229.69 700.52 214.6 657.79 206.26Z" />
			<path id="Path 10" class="shp4" d="M307.8 295.46C340.49 268.13 377.48 245.65 417.85 229.22C410.7 267.46 410.6 306.99 417.89 345.68C426.08 389.02 443.63 431.29 470.88 469.54C498.15 507.79 532.41 538.09 570.68 559.94C602.54 532.66 629.15 498.56 648.26 458.65L744.38 500.72C727.33 536.84 697 578.91 680.63 598.01C652.27 631.09 618.76 658.5 582.24 680.46C505.69 652.38 436.48 601.74 385.59 530.34C361.25 496.2 342.7 459.62 329.9 421.89C315.89 380.68 308.61 338.02 307.8 295.46Z" />
		</g>
		<g id="Group-6">
			<path id="Path 11" class="shp5" d="M617.54 141.71C571.43 132.81 523.44 130.45 474.23 135.46C437.25 139.22 401.78 146.91 367.86 158.37L364.65 175.77C357.59 214.74 357.36 254.06 363.88 292.85C401.49 274.66 442.86 262.59 486.72 258.12C541.77 252.52 595.19 259.32 644.38 276.23C644.38 275.91 644.38 275.6 644.38 275.28C644.38 275.6 644.39 275.91 644.39 276.23L644.38 276.23C644.84 321.3 637.02 367.08 620.07 411.42L733.43 460.33C768.16 372.46 775.69 280.08 759.98 192.8C715.96 168.73 667.93 151.23 617.54 141.71Z" />
			<path id="Path 12" class="shp5" d="M205.88 249.2C244.19 216.78 287.62 190.05 335.05 170.42C326.9 215.51 327.05 262.07 335.91 307.6C345.85 358.6 366.81 408.27 399.18 453.14C431.57 498.01 472.14 533.47 517.37 558.95C554.72 526.6 585.82 486.24 608.07 439.09L721.58 487.99C701.75 530.66 666.31 580.42 647.15 603.03C613.98 642.2 574.69 674.72 531.82 700.84C441.45 668.29 359.57 609.12 299.13 525.35C270.22 485.31 248.12 442.35 232.77 397.98C215.99 349.53 207.12 299.33 205.88 249.2Z" />
		</g>
		<g id="Group-7">
			<path id="Path 13" class="shp6" d="M577.3 77.16C524.17 67.14 468.91 64.66 412.29 70.68C369.74 75.19 328.95 84.22 289.96 97.58L286.36 117.63C278.43 162.51 278.35 207.78 286.05 252.41C329.25 231.27 376.82 217.18 427.28 211.82C490.62 205.09 552.15 212.66 608.86 231.88C608.86 231.51 608.86 231.15 608.86 230.78C608.86 231.15 608.88 231.51 608.88 231.88L608.86 231.88C609.61 283.75 600.84 336.5 581.55 387.61L712.29 443.36C751.82 342.03 760.03 235.66 741.52 135.26C690.73 107.77 635.35 87.87 577.3 77.16Z" />
			<path id="Path 14" class="shp6" d="M103.95 202.94C147.89 165.43 197.75 134.45 252.26 111.61C243.09 163.55 243.5 217.16 253.93 269.52C265.62 328.18 290 385.25 327.49 436.75C364.99 488.23 411.87 528.85 464.06 557.96C506.89 520.53 542.5 473.92 567.87 419.53L698.78 475.26C676.17 524.47 635.62 581.93 613.68 608.06C575.69 653.31 530.62 690.94 481.41 721.22C377.21 684.2 282.66 616.49 212.67 520.37C179.19 474.41 153.54 425.07 135.65 374.08C116.1 318.39 105.63 260.64 103.95 202.94Z" />
		</g>
		<g id="Group-8">
			<path id="Path 15" class="shp7" d="M537.06 12.61C476.91 1.48 414.39 -1.12 350.35 5.89C302.24 11.17 256.12 21.53 212.06 36.79L208.06 59.48C199.26 110.29 199.34 161.5 208.22 211.96C257.02 187.89 310.78 171.76 367.84 165.51C439.48 157.66 509.11 165.99 573.34 187.53C573.34 187.11 573.33 186.7 573.33 186.28C573.33 186.7 573.36 187.11 573.36 187.52L573.34 187.53C574.39 246.21 564.67 305.91 543.03 363.81L691.14 426.39C735.49 311.61 744.38 191.23 723.06 77.72C665.49 46.82 602.77 24.51 537.06 12.61Z" />
			<path id="Path 16" class="shp7" d="M2.02 156.69C51.6 114.08 107.88 78.85 169.46 52.8C159.29 111.6 159.95 172.24 171.94 231.44C185.39 297.76 213.19 362.24 255.79 420.35C298.42 478.46 351.59 524.24 410.75 556.97C459.07 514.46 499.17 461.6 527.67 399.97L675.98 462.52C650.58 518.29 604.92 583.44 580.2 613.08C537.4 664.41 486.56 707.16 430.99 741.6C312.97 700.11 205.75 623.86 126.21 515.38C88.17 463.52 58.96 407.8 38.53 350.17C16.2 287.25 4.14 221.96 2.02 156.69Z" />
		</g>
	</g>
</svg>