<svg xmlns="http://www.w3.org/2000/svg" viewBox="0 0 384 388" width="384" height="388">
	<defs>
		<linearGradient id="grd1" gradientUnits="userSpaceOnUse"  x1="45.099" y1="58.271" x2="272.842" y2="542.388">
			<stop offset="0" stop-color="#ffaa3c"  />
			<stop offset="0.423" stop-color="#d8753b"  />
			<stop offset="0.804" stop-color="#bb4d3a"  />
			<stop offset="1" stop-color="#b03e3a"  />
		</linearGradient>
	</defs>
	<style>
		tspan { white-space:pre }
		.shp0 { fill: url(#grd1);stroke: #131733;paint-order:stroke fill markers;stroke-width: 50 } 
	</style>
	<path id="Union 1" class="shp0" d="M120.28 308.67C123.73 307.81 127.16 306.87 130.56 305.84C127.19 306.86 123.8 307.79 120.38 308.63C101.31 290.65 84.5 269.86 70.5 246.26L133.34 211.16C149.01 237.22 169.41 258.8 192.95 275.38C183.92 281.77 174.45 287.43 164.65 292.33C201.28 274.06 233.14 245.15 255.14 206.97C271.24 179.01 280.45 148.94 283.19 118.75C285.64 91.79 282.98 64.76 275.6 39.06C304.23 47.66 330.96 60.6 355.05 77.17C357.28 106.33 355.11 135.99 348.25 165.11C341.98 191.77 331.72 218.02 317.34 242.97C287.28 295.16 243.36 334.35 192.93 358.59C166.57 345.96 142.02 329.22 120.28 308.67ZM30.84 77.18C54.91 60.6 81.69 47.61 110.32 39.11C136.5 31.22 164.15 27 192.95 27C214.58 27 235.58 29.37 255.89 34.02L258.78 43.93C265.16 66.13 267.62 88.94 266.13 111.84C243.28 103.5 218.6 98.95 192.95 98.95C160.74 98.95 130.19 106.05 102.71 118.77C105.1 144.96 112.34 171.08 124.76 195.81L62 230.9C36.71 181.94 26.9 128.77 30.84 77.18Z" />
</svg>