<svg xmlns="http://www.w3.org/2000/svg" viewBox="0 0 2617 3973" width="2617" height="3973">
	<style>
		tspan { white-space:pre }
		.shp0 { fill: #101430 } 
	</style>
	<g id="Section2">
		<g id="Group 30">
			<path id="Path 37" class="shp0" d="M930.34 1.42C600.54 117.07 286.91 283.48 1.7 499.01C301.16 609.1 580.18 774.25 822.23 988.06C1093.34 1227.62 1317.59 1528.7 1472.78 1881.32C1627.89 2234.02 1697.69 2602.64 1691.11 2964.06C1365.11 3074.15 1013.12 3118.53 651.57 3085.73L544.73 3939.7C870.84 3971.16 1294.58 3933.91 1497.92 3898.69C1850.05 3837.72 2183.88 3716.57 2491.91 3551.35C2615.32 2893.97 2548.89 2193.68 2259.23 1535.35C2120.79 1220.57 1940.86 936.34 1728.64 687.72C1496.99 416.09 1226.89 185.73 930.34 1.42Z" />
		</g>
	</g>
</svg>