<svg xmlns="http://www.w3.org/2000/svg" viewBox="0 0 274 274" width="274" height="274">
	<style>
		tspan { white-space:pre }
		.shp0 { fill: none;stroke: #4351b3 } 
	</style>
	<g id="Group 19">
		<path id="Path 1" class="shp0" d="M204.15 11.28C182.66 4.81 159.96 1.36 136.32 1.36C118.57 1.36 101.33 3.3 84.66 7.11L82.29 15.22C77.05 33.4 75.03 52.08 76.26 70.84C95.01 64.01 115.26 60.27 136.32 60.27C162.76 60.27 187.83 66.1 210.39 76.51L210.43 76.06C210.42 76.21 210.41 76.36 210.39 76.51L210.39 76.51C208.42 97.96 202.49 119.34 192.29 139.59L243.8 168.33C264.56 128.24 272.62 84.7 269.38 42.45C249.62 28.88 227.64 18.24 204.15 11.28Z" />
		<path id="Path 2" class="shp0" d="M3.27 42.44C23.05 28.88 44.98 18.28 68.48 11.24C62.42 32.28 60.24 54.42 62.25 76.49C64.5 101.21 72.06 125.84 85.28 148.73C98.5 171.63 116.06 190.45 136.33 204.75C155.65 191.18 172.39 173.5 185.24 152.16L236.83 180.9C225.34 200.23 206.08 222.16 195.88 231.98C178.22 248.99 157.97 262.55 136.33 272.89C94.95 253.04 58.9 220.95 34.22 178.21C22.42 157.78 13.99 136.29 8.85 114.46C3.22 90.62 1.43 66.32 3.27 42.44Z" />
	</g>
</svg>