<svg width="63" height="70" xmlns="http://www.w3.org/2000/svg" xmlns:xlink="http://www.w3.org/1999/xlink" viewBox="0 0 63 70">
  <title>
    Schedule &amp; Location
  </title>
  <style>
    @keyframes flicker {
      0%    { opacity: 1; }
      3%    { opacity: 0.4; }
      6%    { opacity: 1; }
      7%    { opacity: 0.4; }
      8%    { opacity: 1; }
      9%    { opacity: 0.4; }
      10%   { opacity: 1; }
      89%   { opacity: 1; }
      90%   { opacity: 0.4; }
      100%  { opacity: 0.4; }
    }

    #p1  { animation: flicker 6s infinite step-end; }
    #p2 { animation: flicker 5s infinite 3s step-end; }

  </style>
  <defs>
  	<path id="path-1" fill-rule="evenodd" class="shp0" d="M22.16 37.97C21.51 37.97 20.98 37.44 20.98 36.79L20.98 23.68L18.41 23.68C17.93 23.68 17.5 23.4 17.32 22.96C17.14 22.52 17.24 22.02 17.58 21.68L25.08 14.18C25.54 13.72 26.28 13.72 26.73 14.18L34.23 21.68C34.57 22.02 34.67 22.52 34.49 22.96C34.31 23.4 33.88 23.68 33.41 23.68L30.83 23.68L30.83 36.79C30.83 37.44 30.3 37.97 29.66 37.97L22.16 37.97ZM23.33 35.62L28.48 35.62L28.48 22.51C28.48 21.86 29.01 21.34 29.66 21.34L30.58 21.34L25.91 16.67L21.24 21.34L22.16 21.34C22.8 21.34 23.33 21.86 23.33 22.51L23.33 35.62Z" />
		<path id="path-3" fill-rule="evenodd" class="shp0" d="M38.09 50.16C37.79 50.16 37.49 50.04 37.27 49.82L29.77 42.32C29.43 41.98 29.33 41.48 29.51 41.04C29.69 40.6 30.12 40.32 30.59 40.32L33.17 40.32L33.17 27.2C33.17 26.55 33.7 26.03 34.34 26.03L41.84 26.03C42.49 26.03 43.02 26.55 43.02 27.2L43.02 40.32L45.59 40.32C46.07 40.32 46.5 40.6 46.68 41.04C46.86 41.48 46.76 41.98 46.42 42.32L38.92 49.82C38.69 50.04 38.39 50.16 38.09 50.16ZM33.42 42.66L38.09 47.33L42.76 42.66L41.84 42.66C41.2 42.66 40.67 42.13 40.67 41.49L40.67 28.37L35.52 28.37L35.52 41.49C35.52 42.13 34.99 42.66 34.34 42.66L33.42 42.66Z" />
		<path id="path-5" class="shp0" d="M8.33 33.17L3.17 33.17C2.52 33.17 2 32.65 2 32C2 25.87 3.82 19.99 7.27 15C7.64 14.47 8.37 14.33 8.9 14.7C9.44 15.07 9.57 15.8 9.2 16.33C6.24 20.61 4.58 25.6 4.37 30.83L7.18 30.83C7.8 17.67 18.69 7.16 32 7.16C38.61 7.16 44.83 9.73 49.52 14.4C49.74 14.62 49.87 14.92 49.87 15.23C49.87 15.54 49.74 15.84 49.52 16.06L49.27 16.31L53.33 16.31L53.33 12.26L53.18 12.41C52.72 12.86 51.98 12.87 51.52 12.41C46.3 7.21 39.37 4.34 32 4.34C26.35 4.34 20.93 6.02 16.33 9.2C15.8 9.57 15.07 9.44 14.7 8.9C14.33 8.37 14.47 7.64 15 7.27C19.99 3.82 25.87 2 32 2C39.6 2 46.78 4.81 52.33 9.94L53.67 8.6C54.01 8.26 54.51 8.16 54.95 8.34C55.39 8.53 55.67 8.95 55.67 9.43L55.67 17.48C55.67 18.13 55.15 18.66 54.5 18.66L46.44 18.66C45.97 18.66 45.54 18.37 45.36 17.93C45.18 17.49 45.28 16.99 45.61 16.65L47.01 15.26C42.88 11.53 37.59 9.5 32 9.5C19.59 9.5 9.5 19.59 9.5 32C9.5 32.65 8.98 33.17 8.33 33.17L8.33 33.17Z" />
		<path id="path-7" fill-rule="evenodd" class="shp0" d="M11.67 54.06L10.33 55.4C9.99 55.73 9.49 55.84 9.05 55.65C8.61 55.47 8.33 55.05 8.33 54.57L8.33 46.51C8.33 45.87 8.85 45.34 9.5 45.34L17.56 45.34C18.03 45.34 18.46 45.63 18.64 46.07C18.82 46.5 18.72 47.01 18.39 47.34L16.99 48.74C21.12 52.46 26.41 54.5 32 54.5C44.41 54.5 54.5 44.41 54.5 32C54.5 31.35 55.02 30.83 55.67 30.83L60.83 30.83C61.48 30.83 62 31.35 62 32C62 40.01 58.88 47.55 53.21 53.21C47.55 58.88 40.01 62 32 62C24.4 62 17.22 59.19 11.67 54.06ZM11.65 51.25C11.95 51.25 12.25 51.36 12.48 51.59C17.7 56.79 24.63 59.66 32 59.66C39.39 59.66 46.33 56.78 51.56 51.56C56.5 46.61 59.34 40.12 59.63 33.17L56.82 33.17C56.2 46.33 45.31 56.84 32 56.84C25.39 56.84 19.17 54.27 14.48 49.6C14.26 49.38 14.13 49.08 14.13 48.77C14.13 48.46 14.26 48.16 14.48 47.94L14.73 47.69L10.67 47.69L10.67 51.74L10.82 51.59C11.05 51.36 11.35 51.25 11.65 51.25L11.65 51.25Z" />
		<path id="path-9" class="shp0" d="M11.62 12.79C11.31 12.79 11 12.66 10.79 12.44C10.57 12.23 10.44 11.92 10.44 11.61C10.44 11.31 10.57 11 10.79 10.79C11 10.57 11.31 10.44 11.62 10.44C11.92 10.44 12.23 10.57 12.44 10.79C12.66 11 12.79 11.31 12.79 11.61C12.79 11.92 12.66 12.23 12.44 12.44C12.23 12.66 11.92 12.79 11.62 12.79Z" />
  </defs>
  <g id="schedule-location" fill="none" fill-rule="evenodd">
    <g id="p1">
      <use fill="#62c5f5" filter="url(#glow)" xlink:href="#path-1"/>
      <use fill="#039be5" xlink:href="#path-1"/>
    </g>
    <g id="p1">
      <use fill="#62c5f5" filter="url(#glow)" xlink:href="#path-3"/>
      <use fill="#039be5" xlink:href="#path-3"/>
    </g>
    <g id="p2">
      <use fill="#62c5f5" filter="url(#glow)" xlink:href="#path-5"/>
      <use fill="#039be5" xlink:href="#path-5"/>
    </g>
    <g id="p2">
      <use fill="#62c5f5" filter="url(#glow)" xlink:href="#path-7"/>
      <use fill="#039be5" xlink:href="#path-7"/>
    </g>
    <g id="p2">
      <use fill="#62c5f5" filter="url(#glow)" xlink:href="#path-9"/>
      <use fill="#039be5" xlink:href="#path-9"/>
    </g>
  </g>
</svg>