<svg width="63" height="70" xmlns="http://www.w3.org/2000/svg" xmlns:xlink="http://www.w3.org/1999/xlink" viewBox="0 0 63 70">
  <title>
    Schedule &amp; Location
  </title>
  <style>
    @keyframes flicker {
      0%    { opacity: 1; }
      3%    { opacity: 0.4; }
      6%    { opacity: 1; }
      7%    { opacity: 0.4; }
      8%    { opacity: 1; }
      9%    { opacity: 0.4; }
      10%   { opacity: 1; }
      89%   { opacity: 1; }
      90%   { opacity: 0.4; }
      100%  { opacity: 0.4; }
    }

    #p1  { animation: flicker 6s infinite step-end; }
    #p2 { animation: flicker 5s infinite 3s step-end; }

  </style>
  <defs>
  <path id="path-1" fill-rule="evenodd" class="shp0" d="M49 12.61C49.22 12.83 49.34 13.13 49.34 13.44L49.34 58.48C49.34 60.42 47.77 62 45.83 62L30.95 62C30.3 62 29.77 61.48 29.77 60.83C29.77 60.18 30.3 59.66 30.95 59.66L45.83 59.66C46.47 59.66 47 59.13 47 58.48L47 14.62L40.24 14.62C38.3 14.62 36.73 13.04 36.73 11.1L36.73 4.34L5.52 4.34C4.87 4.34 4.34 4.87 4.34 5.51L4.34 58.48C4.34 59.13 4.87 59.66 5.52 59.66L20.4 59.66C21.05 59.66 21.57 60.18 21.57 60.83C21.57 61.48 21.05 62 20.4 62L5.52 62C3.58 62 2 60.42 2 58.48L2 5.51C2 3.58 3.58 2 5.52 2L37.9 2C38.21 2 38.51 2.12 38.73 2.34L49 12.61ZM40.24 12.27L45.35 12.27L39.07 6L39.07 11.1C39.07 11.75 39.6 12.27 40.24 12.27Z" />
		<path id="path-3" class="shp0" d="M18.17 12.31L13.48 12.31C12.84 12.31 12.31 12.84 12.31 13.48C12.31 14.13 12.84 14.66 13.48 14.66L18.17 14.66C18.82 14.66 19.34 14.13 19.34 13.48C19.34 12.84 18.82 12.31 18.17 12.31Z" />
		<path id="path-5" class="shp0" d="M18.17 17L13.48 17C12.84 17 12.31 17.52 12.31 18.17C12.31 18.82 12.84 19.34 13.48 19.34L18.17 19.34C18.82 19.34 19.34 18.82 19.34 18.17C19.34 17.52 18.82 17 18.17 17Z" />
		<path id="path-7" class="shp0" d="M18.17 21.69L13.48 21.69C12.84 21.69 12.31 22.21 12.31 22.86C12.31 23.51 12.84 24.03 13.48 24.03L18.17 24.03C18.82 24.03 19.34 23.51 19.34 22.86C19.34 22.21 18.82 21.69 18.17 21.69Z" />
		<path id="path-9" fill-rule="evenodd" class="shp0" d="M35.93 52.86L29.27 52.86C28.62 52.86 28.09 52.33 28.09 51.69L28.09 19.34L24.03 19.34L24.03 27.55C24.03 28.19 23.51 28.72 22.86 28.72L8.8 28.72C8.15 28.72 7.62 28.19 7.62 27.55L7.62 8.8C7.62 8.15 8.15 7.62 8.8 7.62L22.86 7.62C23.51 7.62 24.03 8.15 24.03 8.8L24.03 17L29.27 17C29.91 17 30.44 17.52 30.44 18.17L30.44 24.26L35.93 24.26C36.43 22.64 37.94 21.45 39.73 21.45C41.93 21.45 43.72 23.24 43.72 25.44C43.72 27.63 41.93 29.42 39.73 29.42C37.94 29.42 36.43 28.24 35.93 26.61L30.44 26.61L30.44 37.39L35.93 37.39C36.43 35.76 37.94 34.58 39.73 34.58C41.93 34.58 43.72 36.36 43.72 38.56C43.72 40.76 41.93 42.55 39.73 42.55C37.94 42.55 36.43 41.36 35.93 39.73L30.44 39.73L30.44 50.51L35.93 50.51C36.43 48.89 37.94 47.7 39.73 47.7C41.93 47.7 43.72 49.49 43.72 51.69C43.72 53.88 41.93 55.67 39.73 55.67C37.94 55.67 36.43 54.49 35.93 52.86ZM38.09 38.56C38.09 39.47 38.83 40.2 39.73 40.2C40.64 40.2 41.37 39.47 41.37 38.56C41.37 37.66 40.64 36.92 39.73 36.92C38.83 36.92 38.09 37.66 38.09 38.56ZM38.09 25.44C38.09 26.34 38.83 27.08 39.73 27.08C40.64 27.08 41.37 26.34 41.37 25.44C41.37 24.53 40.64 23.8 39.73 23.8C38.83 23.8 38.09 24.53 38.09 25.44ZM21.69 9.97L9.97 9.97L9.97 26.37L21.69 26.37L21.69 9.97ZM38.09 51.69C38.09 52.59 38.83 53.33 39.73 53.33C40.64 53.33 41.37 52.59 41.37 51.69C41.37 50.78 40.64 50.05 39.73 50.05C38.83 50.05 38.09 50.78 38.09 51.69Z" />
		<path id="path-11" class="shp0" d="M25.67 59.66C25.36 59.66 25.06 59.78 24.84 60C24.63 60.22 24.5 60.52 24.5 60.83C24.5 61.14 24.63 61.44 24.84 61.66C25.06 61.87 25.36 62 25.67 62C25.98 62 26.28 61.87 26.5 61.66C26.72 61.44 26.84 61.14 26.84 60.83C26.84 60.52 26.72 60.22 26.5 60C26.28 59.78 25.98 59.66 25.67 59.66Z" />
  </defs>
  <g id="schedule-location" fill="none" fill-rule="evenodd">
    <g id="p1">
      <use fill="#62c5f5" filter="url(#glow)" xlink:href="#path-1"/>
      <use fill="#039be5" xlink:href="#path-1"/>
    </g>
    <g id="p2">
      <use fill="#62c5f5" filter="url(#glow)" xlink:href="#path-3"/>
      <use fill="#039be5" xlink:href="#path-3"/>
    </g>
    <g id="p2">
      <use fill="#62c5f5" filter="url(#glow)" xlink:href="#path-5"/>
      <use fill="#039be5" xlink:href="#path-5"/>
    </g>
    <g id="p2">
      <use fill="#62c5f5" filter="url(#glow)" xlink:href="#path-7"/>
      <use fill="#039be5" xlink:href="#path-7"/>
    </g>
    <g id="p2">
      <use fill="#62c5f5" filter="url(#glow)" xlink:href="#path-9"/>
      <use fill="#039be5" xlink:href="#path-9"/>
    </g>
        <g id="p1">
      <use fill="#62c5f5" filter="url(#glow)" xlink:href="#path-11"/>
      <use fill="#039be5" xlink:href="#path-11"/>
    </g>
  </g>
</svg>