<svg width="63" height="70" xmlns="http://www.w3.org/2000/svg" xmlns:xlink="http://www.w3.org/1999/xlink" viewBox="0 0 63 70">
  <title>
    Schedule &amp; Location
  </title>
  <style>
    @keyframes flicker {
      0%    { opacity: 1; }
      3%    { opacity: 0.4; }
      6%    { opacity: 1; }
      7%    { opacity: 0.4; }
      8%    { opacity: 1; }
      9%    { opacity: 0.4; }
      10%   { opacity: 1; }
      89%   { opacity: 1; }
      90%   { opacity: 0.4; }
      100%  { opacity: 0.4; }
    }

    #p1  { animation: flicker 6s infinite step-end; }
    #p2 { animation: flicker 5s infinite 3s step-end; }

  </style>
  <defs>
 		<path id="path-1" fill-rule="evenodd" class="shp0" d="M51.45 35.19C57.27 35.19 62 39.92 62 45.73C62 51.55 57.27 56.28 51.45 56.28C45.63 56.28 40.9 51.55 40.9 45.73C40.9 44.35 41.17 43.02 41.66 41.81C41.6 41.78 41.53 41.76 41.47 41.72L37.62 39.5C36.29 41.13 34.26 42.17 32 42.17C29.74 42.17 27.71 41.13 26.38 39.5L22.53 41.72C22.47 41.76 22.4 41.78 22.34 41.81C22.83 43.02 23.1 44.35 23.1 45.73C23.1 51.55 18.36 56.28 12.55 56.28C6.73 56.28 2 51.55 2 45.73C2 39.92 6.73 35.19 12.55 35.19C16.15 35.19 19.34 37 21.24 39.77C21.28 39.74 21.32 39.71 21.36 39.69L25.2 37.47C24.9 36.67 24.73 35.8 24.73 34.9C24.73 31.29 27.38 28.29 30.83 27.73L30.83 23.29C30.83 23.2 30.84 23.12 30.86 23.03C25.58 22.46 21.45 17.98 21.45 12.55C21.45 8.93 23.27 5.61 26.32 3.66C26.86 3.31 27.59 3.47 27.94 4.01C28.29 4.56 28.13 5.28 27.58 5.63C25.21 7.15 23.8 9.73 23.8 12.55C23.8 14.08 24.22 15.52 24.96 16.75C25.41 15.5 26.49 14.53 27.86 14.27L27.91 14.26C27.82 13.93 27.78 13.58 27.78 13.22L27.78 12C27.78 9.67 29.67 7.78 32 7.78C34.33 7.78 36.22 9.67 36.22 12L36.22 13.22C36.22 13.58 36.18 13.93 36.09 14.26L36.14 14.27C37.51 14.53 38.59 15.5 39.04 16.75C39.78 15.52 40.2 14.08 40.2 12.55C40.2 9.75 38.8 7.17 36.44 5.65C35.9 5.29 35.74 4.57 36.09 4.03C36.44 3.48 37.17 3.32 37.71 3.68C40.74 5.63 42.55 8.95 42.55 12.55C42.55 17.98 38.42 22.46 33.14 23.03C33.16 23.12 33.17 23.2 33.17 23.29L33.17 27.73C36.62 28.29 39.27 31.29 39.27 34.9C39.27 35.8 39.1 36.67 38.8 37.47L42.64 39.69C42.68 39.71 42.72 39.74 42.76 39.77C44.66 37 47.85 35.19 51.45 35.19ZM7.62 52.29C8.99 53.32 10.7 53.94 12.55 53.94C14.4 53.94 16.1 53.32 17.48 52.29L17.48 51.23C17.48 50.51 16.96 49.9 16.26 49.77L15.32 49.59C14.58 50.24 13.61 50.63 12.55 50.63C11.49 50.63 10.52 50.24 9.78 49.59L8.84 49.77C8.13 49.9 7.62 50.51 7.62 51.23L7.62 52.29ZM19.59 49.93C20.33 48.7 20.75 47.27 20.75 45.73C20.75 41.21 17.07 37.53 12.55 37.53C8.02 37.53 4.34 41.21 4.34 45.73C4.34 47.27 4.77 48.7 5.5 49.93C5.95 48.68 7.04 47.72 8.41 47.46L8.46 47.45C8.37 47.12 8.33 46.77 8.33 46.41L8.33 45.19C8.33 42.86 10.22 40.97 12.55 40.97C14.88 40.97 16.77 42.86 16.77 45.19L16.77 46.41C16.77 46.77 16.72 47.12 16.64 47.45L16.69 47.46C18.06 47.72 19.14 48.68 19.59 49.93ZM14.43 45.19C14.43 44.15 13.58 43.31 12.55 43.31C11.51 43.31 10.67 44.15 10.67 45.19L10.67 46.41C10.67 47.44 11.51 48.28 12.55 48.28C13.58 48.28 14.43 47.44 14.43 46.41L14.43 45.19ZM30.12 13.22C30.12 14.25 30.96 15.1 32 15.1C33.04 15.1 33.88 14.25 33.88 13.22L33.88 12C33.88 10.96 33.03 10.12 32 10.12C30.96 10.12 30.12 10.96 30.12 12L30.12 13.22ZM28.29 16.58C27.59 16.71 27.07 17.33 27.07 18.04L27.07 19.1C28.45 20.14 30.15 20.75 32 20.75C33.85 20.75 35.55 20.14 36.93 19.1L36.93 18.04C36.93 17.33 36.41 16.71 35.71 16.58L34.77 16.4C34.03 17.05 33.06 17.44 32 17.44C30.94 17.44 29.97 17.05 29.23 16.4L28.29 16.58ZM32 39.82C34.71 39.82 36.92 37.61 36.92 34.9C36.92 32.19 34.71 29.98 32 29.98C29.29 29.98 27.08 32.19 27.08 34.9C27.08 37.61 29.29 39.82 32 39.82ZM46.52 52.29C47.9 53.32 49.6 53.94 51.45 53.94C53.3 53.94 55.01 53.32 56.38 52.29L56.38 51.23C56.38 50.51 55.87 49.9 55.16 49.77L54.22 49.59C53.48 50.24 52.51 50.63 51.45 50.63C50.39 50.63 49.43 50.24 48.68 49.59L47.74 49.77C47.04 49.9 46.52 50.51 46.52 51.23L46.52 52.29ZM58.5 49.93C59.23 48.7 59.66 47.27 59.66 45.73C59.66 41.21 55.98 37.53 51.45 37.53C46.93 37.53 43.25 41.21 43.25 45.73C43.25 47.27 43.67 48.7 44.41 49.93C44.86 48.68 45.94 47.72 47.31 47.46L47.36 47.45C47.28 47.12 47.23 46.77 47.23 46.41L47.23 45.19C47.23 42.86 49.12 40.97 51.45 40.97C53.78 40.97 55.67 42.86 55.67 45.19L55.67 46.41C55.67 46.77 55.63 47.12 55.54 47.45L55.59 47.46C56.96 47.72 58.05 48.68 58.5 49.93ZM53.33 45.19C53.33 44.15 52.49 43.31 51.45 43.31C50.42 43.31 49.57 44.15 49.57 45.19L49.57 46.41C49.57 47.44 50.42 48.28 51.45 48.28C52.49 48.28 53.33 47.44 53.33 46.41L53.33 45.19Z" />
		<path id="path-3" class="shp0" d="M32 33.73C31.69 33.73 31.39 33.85 31.17 34.07C30.95 34.29 30.83 34.59 30.83 34.9C30.83 35.21 30.95 35.51 31.17 35.73C31.39 35.95 31.69 36.07 32 36.07C32.31 36.07 32.61 35.95 32.83 35.73C33.05 35.51 33.17 35.21 33.17 34.9C33.17 34.59 33.05 34.29 32.83 34.07C32.61 33.85 32.31 33.73 32 33.73Z" />
		<path id="path-5" class="shp0" d="M32 4.34C32.65 4.34 33.17 3.82 33.17 3.17L33.17 3.17C33.17 2.52 32.65 2 32 2C31.35 2 30.83 2.53 30.83 3.17C30.83 3.82 31.35 4.34 32 4.34L32 4.34Z" />
  </defs>
  <g id="schedule-location" fill="none" fill-rule="evenodd">
    <g id="p1">
      <use fill="#62c5f5" filter="url(#glow)" xlink:href="#path-1"/>
      <use fill="#039be5" xlink:href="#path-1"/>
    </g>
    <g id="p2">
      <use fill="#62c5f5" filter="url(#glow)" xlink:href="#path-3"/>
      <use fill="#039be5" xlink:href="#path-3"/>
    </g>
    <g id="p2">
      <use fill="#62c5f5" filter="url(#glow)" xlink:href="#path-5"/>
      <use fill="#039be5" xlink:href="#path-5"/>
    </g>
  </g>
</svg>