<svg width="63" height="70" xmlns="http://www.w3.org/2000/svg" xmlns:xlink="http://www.w3.org/1999/xlink" viewBox="0 0 63 70">
  <title>
    Schedule &amp; Location
  </title>
  <style>
    @keyframes flicker {
      0%    { opacity: 1; }
      3%    { opacity: 0.4; }
      6%    { opacity: 1; }
      7%    { opacity: 0.4; }
      8%    { opacity: 1; }
      9%    { opacity: 0.4; }
      10%   { opacity: 1; }
      89%   { opacity: 1; }
      90%   { opacity: 0.4; }
      100%  { opacity: 0.4; }
    }

    #p1  { animation: flicker 6s infinite step-end; }
    #p2 { animation: flicker 5s infinite 3s step-end; }

  </style>
  <defs>
  	<path id="path-1" fill-rule="evenodd" class="shp0" d="M51.45 40.9C57.27 40.9 62 45.63 62 51.45C62 57.27 57.27 62 51.45 62C46.03 62 41.56 57.89 40.97 52.62L34.81 52.62C34.17 52.62 33.64 52.1 33.64 51.45L33.64 43.14C33.11 43.21 32.56 43.25 32 43.25C31.44 43.25 30.9 43.21 30.36 43.14L30.36 51.45C30.36 52.1 29.84 52.62 29.19 52.62L23.03 52.62C22.45 57.89 17.97 62 12.55 62C6.73 62 2 57.27 2 51.45C2 45.63 6.73 40.9 12.55 40.9C17.97 40.9 22.45 45.01 23.03 50.28L28.02 50.28L28.02 42.56C23.73 41.05 20.56 37.15 20.11 32.47L14.46 32.47C10.56 32.47 7.39 29.29 7.39 25.39C7.39 22.82 8.76 20.5 10.96 19.25C10.94 19.04 10.93 18.83 10.93 18.63C10.93 14.78 14.02 11.64 17.85 11.56C19.54 7.63 22.76 4.54 26.78 3.02C27.38 2.79 28.06 3.09 28.29 3.7C28.52 4.3 28.21 4.98 27.61 5.21C23.95 6.6 21.08 9.5 19.73 13.17C19.55 13.67 19.04 13.98 18.51 13.93C18.34 13.91 18.17 13.9 18.01 13.9C15.4 13.9 13.27 16.02 13.27 18.63C13.27 18.97 13.31 19.32 13.39 19.67C13.52 20.23 13.22 20.8 12.69 21.01C10.89 21.74 9.73 23.46 9.73 25.39C9.73 28 11.85 30.12 14.46 30.12L20.11 30.12C20.7 24.08 25.81 19.34 32 19.34C38.2 19.34 43.31 24.08 43.9 30.12L47.2 30.12C51.1 30.12 54.27 26.95 54.27 23.06C54.27 19.17 51.1 16 47.2 16C47.08 16 46.95 16 46.79 16.01C46.21 16.05 45.69 15.65 45.58 15.08C44.66 10.61 41.43 6.83 37.15 5.21C36.55 4.98 36.24 4.3 36.47 3.7C36.7 3.09 37.38 2.79 37.99 3.02C40.45 3.95 42.67 5.51 44.39 7.52C45.92 9.3 47.03 11.41 47.65 13.66C52.63 13.9 56.61 18.02 56.61 23.06C56.61 28.25 52.39 32.47 47.2 32.47L43.9 32.47C43.44 37.15 40.27 41.05 35.99 42.56L35.99 50.28L40.97 50.28C41.55 45.01 46.03 40.9 51.45 40.9L51.45 40.9ZM7.62 58.01C8.99 59.04 10.7 59.66 12.55 59.66C14.4 59.66 16.1 59.04 17.48 58.01L17.48 56.95C17.48 56.23 16.96 55.61 16.26 55.48L15.32 55.31C14.58 55.95 13.61 56.34 12.55 56.34C11.49 56.34 10.52 55.95 9.78 55.31L8.84 55.48C8.13 55.61 7.62 56.23 7.62 56.95L7.62 58.01ZM19.59 55.65C20.33 54.42 20.75 52.98 20.75 51.45C20.75 46.93 17.07 43.25 12.55 43.25C8.02 43.25 4.34 46.93 4.34 51.45C4.34 52.98 4.77 54.42 5.5 55.65C5.95 54.4 7.04 53.43 8.41 53.18L8.46 53.17C8.37 52.83 8.33 52.48 8.33 52.12L8.33 50.9C8.33 48.58 10.22 46.68 12.55 46.68C14.88 46.68 16.77 48.58 16.77 50.9L16.77 52.12C16.77 52.48 16.72 52.83 16.64 53.17L16.69 53.18C18.06 53.43 19.14 54.4 19.59 55.65ZM14.43 50.9C14.43 49.87 13.58 49.03 12.55 49.03C11.51 49.03 10.67 49.87 10.67 50.9L10.67 52.12C10.67 53.16 11.51 54 12.55 54C13.58 54 14.43 53.16 14.43 52.12L14.43 50.9ZM22.39 31.29C22.39 33.23 22.97 35.03 23.96 36.54C24.36 34.99 25.63 33.76 27.27 33.45L27.52 33.41C27.39 32.98 27.32 32.53 27.32 32.07L27.32 30.67C27.32 28.09 29.42 25.99 32 25.99C34.58 25.99 36.68 28.09 36.68 30.67L36.68 32.07C36.68 32.53 36.61 32.98 36.48 33.41L36.73 33.45C38.37 33.76 39.64 34.99 40.05 36.54C41.03 35.03 41.61 33.23 41.61 31.29C41.61 26 37.3 21.69 32 21.69C26.7 21.69 22.39 26 22.39 31.29ZM29.67 32.07C29.67 33.36 30.71 34.4 32 34.4C33.29 34.4 34.34 33.36 34.34 32.07L34.34 30.67C34.34 29.38 33.29 28.33 32 28.33C30.71 28.33 29.67 29.38 29.67 30.67L29.67 32.07ZM26.16 38.92C27.78 40.16 29.81 40.9 32 40.9C34.2 40.9 36.22 40.16 37.84 38.92L37.84 37.62C37.84 36.71 37.19 35.92 36.3 35.76L35.13 35.54C34.3 36.29 33.21 36.75 32 36.75C30.8 36.75 29.7 36.29 28.87 35.54L27.7 35.76C26.81 35.92 26.16 36.71 26.16 37.62L26.16 38.92L26.16 38.92ZM46.53 58.01C47.9 59.04 49.61 59.66 51.45 59.66C53.3 59.66 55.01 59.04 56.38 58.01L56.38 56.95C56.38 56.23 55.87 55.61 55.16 55.48L54.22 55.31C53.48 55.95 52.51 56.34 51.45 56.34C50.39 56.34 49.43 55.95 48.68 55.31L47.74 55.48C47.04 55.61 46.53 56.23 46.53 56.95L46.53 58.01ZM58.5 55.65C59.23 54.42 59.66 52.98 59.66 51.45C59.66 46.93 55.98 43.25 51.45 43.25C46.93 43.25 43.25 46.93 43.25 51.45C43.25 52.98 43.67 54.42 44.41 55.65C44.86 54.4 45.94 53.43 47.31 53.18L47.36 53.17C47.28 52.83 47.23 52.48 47.23 52.12L47.23 50.9C47.23 48.58 49.13 46.68 51.45 46.68C53.78 46.68 55.67 48.58 55.67 50.9L55.67 52.12C55.67 52.48 55.63 52.83 55.54 53.17L55.59 53.18C56.96 53.43 58.05 54.4 58.5 55.65ZM53.33 50.9C53.33 49.87 52.49 49.03 51.45 49.03C50.42 49.03 49.58 49.87 49.58 50.9L49.58 52.12C49.58 53.16 50.42 54 51.45 54C52.49 54 53.33 53.16 53.33 52.12L53.33 50.9Z" />
		<path id="path-3" class="shp0" d="M32.38 4.35C33.03 4.35 33.55 3.82 33.55 3.17L33.55 3.17C33.55 2.52 33.03 2 32.38 2C31.74 2 31.21 2.53 31.21 3.17C31.21 3.82 31.74 4.35 32.38 4.35L32.38 4.35Z" />
  </defs>
  <g id="schedule-location" fill="none" fill-rule="evenodd">
    <g id="p1">
      <use fill="#62c5f5" filter="url(#glow)" xlink:href="#path-1"/>
      <use fill="#039be5" xlink:href="#path-1"/>
    </g>
    <g id="p2">
      <use fill="#62c5f5" filter="url(#glow)" xlink:href="#path-3"/>
      <use fill="#039be5" xlink:href="#path-3"/>
    </g>
  </g>
</svg>